# xmcd
#
# Track frame offsets:
#	150
#	15237
#	32088
#	51938
#	69338
#	83001
#	101160
#	116806
#	136910
#	148093
#	166045
#	183726
#	200360
#
# Disc length: 2951 seconds
# Revision: 0
# Processed by: cddbd v1.5.2PL0 Copyright (c) Steve Scherf et al.
# Submitted via: dBpowerAMP V12.0
#
DISCID=ae0b850d
DTITLE=Hallur Joensen - Enn Stendur Hurd Min Opin
DYEAR=2011
DGENRE=
TTITLE0=Nu Kanst Tu Hava Tad So Gott
TTITLE1=Her I Bygdini
TTITLE2=Um Tu Hevur Tad Sum Eg
TTITLE3=Eingin Annar
TTITLE4=Og Eg Elski Teg Enn
TTITLE5=Enn Stendur Hurd Min Opin
TTITLE6=Eingin Krisa
TTITLE7=Bara Tu
TTITLE8=Hvi Gledist Eg So
TTITLE9=Um Tu Motgang Far
TTITLE10=Dreymasjon Til Foroya
TTITLE11=Tu Eigur Dagin I Dag
TTITLE12=13 Ta Id Eg Komi Fram m1.aif
EXTD=
EXTT0=
EXTT1=
EXTT2=
EXTT3=
EXTT4=
EXTT5=
EXTT6=
EXTT7=
EXTT8=
EXTT9=
EXTT10=
EXTT11=
EXTT12=
PLAYORDER=
